<?xml version="1.0" standalone="no"?>
<!DOCTYPE svg PUBLIC "-//W3C//DTD SVG 20010904//EN"
 "http://www.w3.org/TR/2001/REC-SVG-20010904/DTD/svg10.dtd">
<svg version="1.0" xmlns="http://www.w3.org/2000/svg"
 width="1024.000000pt" height="1024.000000pt" viewBox="0 0 1024.000000 1024.000000"
 preserveAspectRatio="xMidYMid meet">

<g transform="translate(0.000000,1024.000000) scale(0.100000,-0.100000)"
fill="#000000" stroke="none">
<path d="M3162 6759 c-31 -12 -50 -43 -61 -99 -6 -30 -13 -66 -17 -79 l-7 -23
167 7 166 7 1 -23 c1 -21 2 -21 10 6 17 55 13 56 -151 53 -165 -3 -161 -5
-141 58 5 16 12 41 15 57 l6 27 378 2 c207 1 334 3 282 5 -217 6 -633 8 -648
2z"/>
<path d="M6237 6758 c-7 -4 12 -8 41 -8 28 0 52 2 52 4 0 8 -81 11 -93 4z"/>
<path d="M4218 6753 c84 -2 219 -2 300 0 81 1 12 3 -153 3 -165 0 -231 -2
-147 -3z"/>
<path d="M5158 6753 c23 -2 59 -2 80 0 20 2 1 4 -43 4 -44 0 -61 -2 -37 -4z"/>
<path d="M6375 6725 c-4 -16 -18 -73 -31 -125 -14 -52 -52 -214 -84 -360 -33
-146 -62 -275 -65 -287 -5 -22 -11 -23 -88 -23 -57 0 -77 -3 -67 -10 8 -5 37
-10 64 -10 47 0 48 -1 42 -27 -9 -33 5 -43 66 -43 72 0 96 13 104 57 3 21 19
90 35 153 15 63 35 151 44 195 9 44 38 166 66 272 27 106 49 197 49 203 0 6
-25 10 -59 10 -38 0 -61 4 -64 13 -2 6 -8 -1 -12 -18z"/>
<path d="M3915 6684 c-11 -78 -1 -74 -164 -74 -144 0 -171 -5 -171 -34 0 -16
315 -9 328 7 10 12 32 105 32 132 0 35 -18 11 -25 -31z"/>
<path d="M4728 6668 l-13 -63 -264 -2 c-145 -2 -267 -5 -270 -9 -8 -7 -40
-144 -41 -171 0 -45 19 -22 30 35 6 31 15 68 19 82 l8 25 278 3 c297 2 294 2
295 52 0 14 7 38 15 54 22 43 19 56 -14 56 -28 0 -30 -3 -43 -62z"/>
<path d="M5521 6693 c-5 -21 -12 -50 -15 -65 l-6 -28 -198 0 c-186 0 -200 -2
-247 -24 -137 -63 -225 -282 -166 -411 10 -22 26 -47 36 -55 17 -14 17 -13 9
10 -5 14 -9 59 -8 100 1 139 78 273 186 321 49 22 68 24 266 27 116 2 212 7
213 10 1 4 3 25 5 46 1 21 8 44 14 50 5 5 10 20 10 33 0 21 -5 23 -45 23 -43
0 -45 -1 -54 -37z"/>
<path d="M5761 6583 c-19 -81 -36 -154 -39 -160 -3 -9 10 -13 47 -13 47 0 51
2 57 28 26 111 47 191 59 217 28 64 26 70 -35 73 l-55 3 -34 -148z"/>
<path d="M6201 6714 c0 -11 3 -14 6 -6 3 7 2 16 -1 19 -3 4 -6 -2 -5 -13z"/>
<path d="M3397 6493 c-3 -15 -16 -73 -27 -128 -12 -55 -35 -156 -51 -225 -45
-182 -67 -289 -61 -295 12 -11 160 -5 170 8 11 14 67 266 60 273 -3 2 -12 -33
-22 -79 -27 -128 -17 -117 -105 -117 l-78 0 29 123 c48 209 99 459 95 463 -2
3 -7 -8 -10 -23z"/>
<path d="M4542 6316 c-30 -41 -34 -43 -93 -50 -34 -3 -126 -6 -205 -6 l-144 0
-6 -27 c-3 -16 -12 -53 -20 -84 -17 -71 -17 -79 0 -79 10 0 18 20 26 58 6 31
13 63 15 70 3 9 54 12 207 12 144 1 207 4 218 13 25 20 90 109 90 123 0 9 -11
14 -28 14 -22 0 -36 -10 -60 -44z"/>
<path d="M3516 6275 c-3 -9 -6 -24 -5 -33 0 -9 5 -4 10 12 9 32 6 48 -5 21z"/>
<path d="M5687 6263 c-4 -3 -7 -16 -7 -27 0 -12 -15 -84 -34 -161 l-33 -140
-79 -5 c-67 -5 -72 -6 -34 -10 44 -5 45 -6 42 -38 l-4 -33 83 3 82 3 23 95
c12 52 28 132 35 178 l13 82 162 0 c138 0 163 2 168 16 17 44 17 44 -202 44
-115 0 -212 -3 -215 -7z"/>
<path d="M3496 6184 c-4 -20 -5 -38 -3 -40 3 -3 8 11 11 32 4 20 5 38 3 40 -3
3 -8 -11 -11 -32z"/>
<path d="M4573 5973 l-9 -38 -354 -5 c-195 -3 -350 -8 -344 -12 6 -4 9 -21 6
-38 l-4 -30 367 2 367 3 19 60 c26 84 25 95 -10 95 -25 0 -30 -5 -38 -37z"/>
<path d="M5354 5973 c-4 -21 -12 -41 -18 -45 -15 -11 -286 -9 -370 1 -38 5
-90 20 -117 35 l-49 25 16 -24 c18 -27 65 -65 109 -88 48 -24 224 -41 360 -33
65 3 122 9 126 14 4 4 16 40 27 80 l20 72 -48 0 c-49 0 -49 0 -56 -37z"/>
<path d="M3274 5653 c-3 -16 -12 -46 -19 -68 -7 -22 -15 -58 -18 -80 -3 -22
-8 -47 -11 -55 -3 -8 -7 -28 -10 -45 -6 -38 -38 -183 -66 -305 -13 -52 -26
-115 -31 -140 -5 -25 -16 -76 -25 -115 -9 -38 -18 -82 -21 -97 l-5 -28 80 0
c52 0 83 4 90 13 5 6 17 50 27 97 10 47 36 176 59 287 23 111 44 205 48 209 4
3 18 -18 32 -47 14 -30 48 -88 75 -129 50 -75 211 -340 243 -399 16 -29 20
-31 76 -31 32 0 65 6 74 13 14 11 37 107 59 247 5 30 16 82 24 115 8 33 26
114 40 180 15 66 38 157 51 201 13 45 24 89 24 97 0 16 -27 31 -33 19 -11 -17
-167 -700 -167 -727 0 -3 -31 -5 -68 -5 l-68 0 -24 43 c-13 23 -64 107 -115
187 -111 177 -185 303 -185 317 0 16 -30 25 -35 10 -2 -6 -14 -59 -25 -117
-12 -58 -37 -178 -56 -267 -19 -89 -34 -164 -34 -167 0 -3 -34 -6 -75 -6 -41
0 -75 3 -75 8 1 4 12 54 25 112 29 122 142 635 147 665 3 17 13 21 73 26 l70
5 -72 2 c-72 2 -73 2 -79 -25z"/>
<path d="M3958 5673 c18 -2 45 -2 60 0 15 2 0 4 -33 4 -33 0 -45 -2 -27 -4z"/>
<path d="M4863 5673 c9 -2 23 -2 30 0 6 3 -1 5 -18 5 -16 0 -22 -2 -12 -5z"/>
<path d="M5388 5673 c56 -2 148 -2 205 0 56 1 10 3 -103 3 -113 0 -159 -2
-102 -3z"/>
<path d="M6192 5673 l376 -3 -4 -23 c-4 -21 -4 -21 5 -2 5 11 10 23 10 28 1 4
-171 6 -381 5 l-383 -3 377 -2z"/>
<path d="M3439 5645 c5 -11 17 -29 26 -40 l16 -20 -10 20 c-5 11 -17 29 -26
40 l-16 20 10 -20z"/>
<path d="M6544 5580 l-10 -45 -151 -3 c-134 -2 -152 -5 -157 -20 -3 -9 -35
-154 -71 -322 -37 -168 -69 -311 -71 -317 -2 -9 -27 -13 -78 -13 -50 0 -76 4
-79 13 -3 6 -6 2 -6 -10 -1 -21 3 -23 60 -23 l61 0 -7 -37 c-16 -80 -18 -78
65 -81 41 -1 80 1 87 6 6 4 21 50 32 102 12 52 23 104 26 115 2 11 26 122 52
247 27 124 51 230 55 234 4 4 68 6 141 5 185 -3 180 -5 204 85 11 40 18 76 15
79 -3 3 -38 5 -78 5 -49 0 -74 4 -77 13 -2 6 -8 -8 -13 -33z"/>
<path d="M4907 5593 c-10 -3 -20 -17 -24 -34 l-5 -29 -276 -2 -275 -3 -23 -99
c-13 -55 -21 -103 -18 -108 3 -4 14 -8 24 -8 20 0 25 10 36 75 4 22 12 43 18
47 6 4 121 5 256 1 284 -6 311 -2 323 48 4 19 13 49 19 68 14 44 -3 58 -55 44z"/>
<path d="M5672 5568 l-8 -33 -235 -5 c-158 -3 -241 -9 -255 -17 -73 -42 -98
-133 -48 -172 15 -12 29 -21 33 -21 3 0 14 17 23 38 32 68 61 77 238 74 85 -1
196 0 247 4 l91 6 8 36 c4 21 8 46 9 57 1 11 5 30 9 43 7 21 5 22 -48 22 -54
0 -56 -1 -64 -32z"/>
<path d="M5867 5520 c20 -8 21 -13 12 -36 -18 -48 -8 -54 90 -54 99 0 97 -2
104 70 l2 25 -115 2 c-78 1 -108 -1 -93 -7z"/>
<path d="M4294 5252 c-21 -14 -51 -87 -63 -153 -16 -93 -15 -109 8 -109 14 0
21 10 26 38 4 20 11 43 17 50 8 9 63 12 212 12 l201 0 58 64 c31 36 57 67 57
69 0 11 -136 -7 -148 -20 -10 -10 -57 -13 -198 -13 -196 0 -201 1 -168 48 16
23 16 26 -2 14z"/>
<path d="M5016 5228 c40 -80 102 -110 265 -128 57 -6 114 -13 127 -16 19 -4
22 0 22 24 0 29 -29 63 -62 75 -9 3 -72 13 -140 23 -68 9 -145 25 -173 35 -27
10 -51 19 -53 19 -1 0 5 -15 14 -32z"/>
<path d="M5580 5117 c-1 -96 -61 -187 -152 -228 -51 -23 -63 -24 -325 -27
-162 -2 -273 -7 -273 -13 0 -5 16 -9 36 -9 40 0 40 3 18 -92 l-6 -28 223 0
c123 0 253 5 289 11 164 26 267 121 286 265 7 60 -7 94 -60 141 l-36 31 0 -51z"/>
<path d="M5951 4994 c0 -11 3 -14 6 -6 3 7 2 16 -1 19 -3 4 -6 -2 -5 -13z"/>
<path d="M5931 4904 c0 -11 3 -14 6 -6 3 7 2 16 -1 19 -3 4 -6 -2 -5 -13z"/>
<path d="M4720 4870 c0 -6 -116 -10 -327 -11 -181 0 -337 -4 -348 -9 -19 -8
-19 -9 3 -9 26 -1 26 -3 7 -59 -9 -24 -13 -48 -10 -53 4 -5 149 -9 354 -9 325
0 349 1 364 18 10 10 15 21 12 24 -3 3 2 21 10 41 26 62 21 77 -25 77 -22 0
-40 -4 -40 -10z"/>
</g>
</svg>
